<?xml version="1.0" encoding="UTF-8"?><svg id="Layer_2" xmlns="http://www.w3.org/2000/svg" viewBox="0 0 32 32"><defs><style>.cls-1{fill:#888888;}</style></defs><path class="cls-1" d="m16,30c-7.732,0-14-6.268-14-14S8.268,2,16,2s14,6.268,14,14-6.268,14-14,14Zm0-26.94c-7.1466,0-12.94,5.7934-12.94,12.94s5.7934,12.94,12.94,12.94,12.94-5.7934,12.94-12.94c-.0055-7.1443-5.7957-12.9345-12.94-12.94Z"/><path class="cls-1" d="m23.2264,14.7347l-5.0878-2.6149c-.2762-.1418-.5522-.2137-.8203-.2137-.8213,0-1.3949.6657-1.3949,1.6191v.557l-3.8214-1.9632c-.5369-.275-1.0906-.2827-1.519-.021-.4412.2697-.6942.7902-.6942,1.4278v4.958c0,.6384.2532,1.1573.6945,1.4239.2047.1237.4377.1853.6835.1853.2692,0,.5539-.0739.834-.2212l3.8227-2.018v.6304c0,.9476.5675,1.6096,1.3803,1.6096.2721,0,.5522-.0751.8326-.2229l5.1033-2.6934c.5566-.2938.8742-.7409.8716-1.2266-.0027-.4855-.3251-.9288-.8846-1.2162h-.0003Zm-11.6328,4.175c-.1874.0987-.3552.1235-.4487.0672-.1045-.0632-.1694-.2521-.1694-.4933v-4.958c0-.2429.0667-.4347.174-.5002.0966-.059.2671-.036.4559.0607l4.3177,2.218v1.3204l-4.3296,2.2853Zm11.1381-2.6939l-5.103,2.6934c-.1523.0804-.261.0973-.3252.0973-.2645,0-.2931-.3654-.2931-.5225v-4.959c0-.16.03-.5319.3077-.5319.0924,0,.2042.0324.3234.0937l5.0878,2.6148c.2425.1246.2941.2381.2942.2553,0,.0172-.0502.1316-.2919.259h0Z"/></svg>