<?xml version="1.0" encoding="UTF-8"?><svg id="Layer_2" xmlns="http://www.w3.org/2000/svg" viewBox="0 0 32 32"><defs><style>.cls-1{fill:#888888;}.cls-2{fill:none;stroke:#888888;stroke-miterlimit:10;}</style></defs><g><g><path class="cls-1" d="m8.2842,27.5854c-.2919,0-.5281-.2367-.5281-.5292v-4.3445c0-.2925.2362-.5292.5281-.5292s.5281.2367.5281.5292v4.3445c0,.2925-.2362.5292-.5281.5292Z"/><path class="cls-1" d="m8.2842,27.5854H3.9493c-.2919,0-.5281-.2367-.5281-.5292s.2362-.5292.5281-.5292h4.3349c.2919,0,.5281.2367.5281.5292s-.2362.5292-.5281.5292Z"/></g><g><path class="cls-1" d="m23.7354,9.8084c-.2919,0-.5281-.2367-.5281-.5292v-4.3445c0-.2925.2362-.5292.5281-.5292s.5281.2367.5281.5292v4.3445c0,.2925-.2362.5292-.5281.5292Z"/><path class="cls-1" d="m28.0703,5.4639h-4.3349c-.2919,0-.5281-.2367-.5281-.5292s.2362-.5292.5281-.5292h4.3349c.2919,0,.5281.2367.5281.5292s-.2362.5292-.5281.5292Z"/></g><path class="cls-1" d="m16.7416,30c-.2785,0-.5116-.2181-.527-.5003-.0165-.2925.2073-.5416.4982-.5571,6.8587-.3742,12.2312-6.0635,12.2312-12.9539,0-4.2215-2.0607-8.1918-5.5117-10.6219-.2393-.1685-.297-.4982-.1289-.737.1681-.2398.4982-.2967.7354-.1292,3.7326,2.6276,5.9614,6.9225,5.9614,11.4881,0,7.4527-5.8108,13.6061-13.2296,14.0103-.0103.001-.0196.001-.0289.001Z"/><path class="cls-1" d="m8.2842,27.5874c-.1052,0-.2104-.031-.3032-.0961-3.745-2.6276-5.981-6.9276-5.981-11.5026C2,8.7148,7.6623,2.5696,14.8902,2.0011c.2836-.0186.5446.1943.5673.4858.0237.2915-.1939.5458-.4848.5685-6.6823.5272-11.9166,6.2072-11.9166,12.9332,0,4.2298,2.0679,8.2063,5.5313,10.6364.2382.1675.297.4972.1289.737-.1021.1468-.2661.2253-.4321.2253Z"/></g><g><rect class="cls-2" x="10.5" y="11" width="4" height="4" rx="1.1842" ry="1.1842"/><rect class="cls-2" x="17.5" y="11" width="4" height="4" rx="1.1842" ry="1.1842"/><rect class="cls-2" x="10.5" y="17" width="4" height="4" rx="1.1842" ry="1.1842"/><rect class="cls-2" x="17.5" y="17" width="4" height="4" rx="1.1842" ry="1.1842"/></g></svg>