<?xml version="1.0" encoding="UTF-8"?><svg id="Layer_2" xmlns="http://www.w3.org/2000/svg" viewBox="0 0 32 32"><defs><style>.cls-1{fill:#888888;}.cls-2{fill:none;stroke:#888888;stroke-miterlimit:10;}.cls-3{fill:#888888;}</style></defs><path class="cls-1" d="m16,30c-7.7197,0-14-6.2807-14-14.0002S8.2803,2,16,2s14,6.2802,14,13.9998-6.2803,14.0002-14,14.0002Zm0-26.8174c-7.0676,0-12.8174,5.7496-12.8174,12.8172s5.7497,12.8176,12.8174,12.8176,12.8174-5.75,12.8174-12.8176S23.0676,3.1826,16,3.1826Z"/><path class="cls-3" d="m15.6561,12.5159h-1.0772v1.5137h-1.4866v1.0973h1.4866v1.5132h1.0772v-1.5132h1.486v-1.0973h-1.486v-1.5137Z"/><ellipse class="cls-2" cx="15" cy="14.6027" rx="5.5" ry="5.6027"/><path class="cls-3" d="m22.7678,23.2359h0c-.1953.1989-.5118.1989-.7071,0l-3.5355-3.6016c-.1953-.1989-.1953-.5214,0-.7203h0c.1953-.1989.5118-.1989.7071,0l3.5355,3.6016c.1953.1989.1953.5214,0,.7203Z"/></svg>