<?xml version="1.0" encoding="UTF-8"?><svg id="Layer_2" xmlns="http://www.w3.org/2000/svg" viewBox="0 0 32 32"><defs><style>.cls-1{fill:#888888;}</style></defs><path class="cls-1" d="m16.0001,30c-7.7198,0-14.0001-6.2806-14.0001-14S8.2804,2,16.0001,2s13.9999,6.2806,13.9999,14-6.2804,14-13.9999,14Zm0-26.8842c-7.1044,0-12.8844,5.7799-12.8844,12.8842s5.78,12.8842,12.8844,12.8842,12.8841-5.7799,12.8841-12.8842S23.1045,3.1158,16.0001,3.1158Z"/><g><path class="cls-1" d="m17.3372,20.8404c.2278-.2279.597-.2279.8248,0s.2278.5975,0,.8255l-1.7496,1.751c-.2278.2279-.597.2279-.8248,0l-1.7496-1.751c-.2278-.2279-.2278-.5975,0-.8255s.597-.2279.8248,0l1.3372,1.3383,1.3372-1.3383Zm-2.6745-9.6808c-.2278.2279-.597.2279-.8248,0s-.2278-.5975,0-.8255l1.7496-1.751c.2278-.2279.597-.2279.8248,0l1.7496,1.751c.2278.2279.2278.5975,0,.8255s-.597.2279-.8248,0l-1.3372-1.3383-1.3372,1.3383Z"/><rect class="cls-1" x="9" y="15.2556" width="14" height="1" transform="translate(.2444 31.7556) rotate(-90)"/></g></svg>