<?xml version="1.0" encoding="UTF-8"?><svg id="Layer_2" xmlns="http://www.w3.org/2000/svg" viewBox="0 0 32 32"><defs><style>.cls-1{fill:#888888;}</style></defs><path class="cls-1" d="m16,30c-7.732,0-14-6.268-14-14S8.268,2,16,2s14,6.268,14,14-6.268,14-14,14Zm0-26.94c-7.1466,0-12.94,5.7934-12.94,12.94s5.7934,12.94,12.94,12.94,12.94-5.7934,12.94-12.94c-.0055-7.1443-5.7957-12.9345-12.94-12.94Z"/><path class="cls-1" d="m9.4375,23.4105h13.125c.2417,0,.4375-.1958.4375-.4375v-12.25c0-.2417-.1958-.4375-.4375-.4375h-6.5625v-.4375c0-.2417-.1958-.4375-.4375-.4375h-6.125c-.2417,0-.4375.1958-.4375.4375v13.125c0,.2417.1958.4375.4375.4375Zm10.0625-12.25h2.625v.875h-2.625v-.875Zm-3.5,0h2.625v.875h-2.625v-.875Zm-6.125-.875h5.25v1.75h-5.25v-1.75Zm0,2.625h12.25v9.625h-12.25v-9.625Z"/></svg>