<svg xmlns="http://www.w3.org/2000/svg" viewBox="0 0 32 32">
  <defs>
    <style>
      .cls-1 {
        fill: #888888;
      }
    </style>
  </defs>
  <title>icon</title>
  <g id="Layer_2" data-name="Layer 2">
    <g>
      <path class="cls-1" d="M19.2,11.31a.43.43,0,0,0,.3-.13l2.31-2.31a.44.44,0,0,0,0-.62.43.43,0,0,0-.61,0l-2.31,2.31a.44.44,0,0,0,.31.75Z"/>
      <path class="cls-1" d="M10.86,8.37a.44.44,0,0,0-.62.62l2.2,2.19a.4.4,0,0,0,.31.13.43.43,0,0,0,.31-.13.44.44,0,0,0,0-.62Z"/>
      <path class="cls-1" d="M16,4.85a.44.44,0,0,0-.44.44V9.64a.44.44,0,0,0,.88,0V5.29A.44.44,0,0,0,16,4.85Z"/>
      <path class="cls-1" d="M10.51,18.22H9l.65-.64A2.12,2.12,0,0,0,10.45,16c0-.7-.36-1.07-1.21-1.07a4.43,4.43,0,0,0-1.12.17l0,.6A6.79,6.79,0,0,1,9,15.63c.43,0,.61.11.61.49s-.29.75-.75,1.25l-.8.86v.66h2.41Z"/>
      <path class="cls-1" d="M9.38,24.16c.25,0,.63,0,.63,0l0-.49s-.4,0-.61,0c-1,0-1.39-.46-1.39-1.48A1.3,1.3,0,0,1,9.38,20.7c.9,0,1.3.39,1.3,1.29v0c0,.63-.09.78-.26.78s-.21-.06-.21-.83v-.76H9.64v.06a1.08,1.08,0,0,0-.38-.11c-.61,0-.81.37-.81,1s.28,1.06.79,1.06a1.39,1.39,0,0,0,.63-.23s.12.23.56.23.81-.37.81-1.25v0a1.62,1.62,0,0,0-1.86-1.79,1.79,1.79,0,0,0-2,2C7.42,23.7,8.13,24.16,9.38,24.16Zm-.09-1.37c-.18,0-.26-.19-.26-.57s.05-.55.36-.55a1.6,1.6,0,0,1,.25,0v.52a3.09,3.09,0,0,0,0,.45A.94.94,0,0,1,9.29,22.79Z"/>
      <path class="cls-1" d="M22.6,18.44a7.77,7.77,0,0,1-1.06-.11l0,.6a5.5,5.5,0,0,0,1.21.18c.91,0,1.27-.45,1.27-1.23a.79.79,0,0,0-.5-.83,1,1,0,0,0,.43-.89c0-.7-.32-1.06-1.3-1.06a3.27,3.27,0,0,0-1.08.21l0,.57a6.45,6.45,0,0,1,1-.1c.38,0,.55.16.55.43s-.22.56-.47.56h-.75v.64h.75a.5.5,0,0,1,.54.49A.51.51,0,0,1,22.6,18.44Z"/>
      <path class="cls-1" d="M23.68,20.37H23v.89h-.57v-.89h-.63v.89h-.53v.61h.53v.7h-.53v.61h.53V24h.63v-.82H23V24h.64v-.82h.53v-.61h-.53v-.7h.53v-.61h-.53ZM23,22.57h-.57v-.7H23Z"/>
      <path class="cls-1" d="M16,2A14,14,0,1,0,30,16,14,14,0,0,0,16,2ZM3.09,16a13.27,13.27,0,0,1,.29-2.69H13a1.08,1.08,0,0,1,1.09,1.08V24.71A1.09,1.09,0,0,1,13,25.8H7.62A12.9,12.9,0,0,1,3.09,16ZM8.75,26.67H13a2,2,0,0,0,2-2V14.39a2,2,0,0,0-2-2H3.61a12.89,12.89,0,0,1,24.78,0H18.93a2,2,0,0,0-2,2V24.71a2,2,0,0,0,2,2h4.32a12.85,12.85,0,0,1-14.5,0Zm15.63-.87H18.93a1.09,1.09,0,0,1-1.09-1.09V14.39a1.08,1.08,0,0,1,1.09-1.08h9.69A13.27,13.27,0,0,1,28.91,16,12.9,12.9,0,0,1,24.38,25.8Z"/>
    </g>
  </g>
</svg>
